{"title":"Spies Like Us 1985 DVDrip Englisk Klam","uid":6115409,"size":734449339,"categoryP":"video","categoryS":"movies","magnet":"?xt=urn:btih:ef430abe153d60f0cce7d94fd4eb5a84fc1d76ba&amp;dn=Spies+Like+Us+1985+DVDrip+Englisk+Klam&amp;tr=udp%3A%2F%2Ftracker.openbittorrent.com%3A80&amp;tr=udp%3A%2F%2Fopen.demonii.com%3A1337&amp;tr=udp%3A%2F%2Ftracker.coppersurfer.tk%3A6969&amp;tr=udp%3A%2F%2Fexodus.desync.com%3A6969","seeders":8,"leechers":0,"uploader":"Klambake","files":-1,"time":1295531221,"description":"With: Chevy Chase, Dan Aykroyd and Steve Forrest\n\nTwo totally incompetent applicants, Emmett Fitzhume and Austin Millbarge, are chosen from a CIA recruitment program. They are parachuted into Pakistan and eventually end up in Afghanistan, chased by the Russians, where they learn they are being used as decoys to draw out the Sovet defenses. Two real spies are sent in. Their mission is to Hijack a soviet Missile launcher, launch the Soviet missile and test the new US orbital defence laser. The missile is fired and while heading for an American City, the laser system misses it's target. The contingency plan for this scenario, as set out by the Pentagon Nuts who planned it from deep within a secret underground bunker, is to let the 3rd World War happen anyway. \n\nGeneral:\n\nComplete name                    : Spies Like Us\\Spies Like Us.avi\nFormat                           : AVI\nFormat/Info                      : Audio Video Interleave\nFile size                        : 700 MiB\nDuration                         : 1h 42mn\nOverall bit rate                 : 958 Kbps\nWriting application              : VirtualDubMod 1.5.10.2 (build 2540/release)\nWriting library                  : VirtualDubMod build 2540/release\n\nVideo:\n\nFormat                           : MPEG-4 Visual\nFormat profile                   : Advanced Simple@L5\nFormat settings, BVOP            : Yes\nFormat settings, QPel            : No\nFormat settings, GMC             : No warppoints\nFormat settings, Matrix          : Custom\nMuxing mode                      : Packed bitstream\nCodec ID                         : XVID\nCodec ID/Hint                    : XviD\nDuration                         : 1h 42mn\nBit rate                         : 817 Kbps\nWidth                            : 464 pixels\nHeight                           : 336 pixels\nDisplay aspect ratio             : 1.381\nFrame rate                       : 23.976 fps\nColor space                      : YUV\nChroma subsampling               : 4:2:0\nBit depth                        : 8 bits\nScan type                        : Progressive\nBits/(Pixel*Frame)               : 0.219\nStream size                      : 597 MiB (85%)\nWriting library                  : XviD 1.2.0SMP (UTC 2006-01-08)\n\nAudio:\n\nFormat                           : MPEG Audio\nFormat version                   : Version 1\nFormat profile                   : Layer 3\nMode                             : Joint stereo\nMode extension                   : MS Stereo\nCodec ID                         : 55\nCodec ID/Hint                    : MP3\nDuration                         : 1h 42mn\nBit rate mode                    : Variable\nBit rate                         : 128 Kbps\nChannel(s)                       : 2 channels\nSampling rate                    : 48.0 KHz\nStream size                      : 93.9 MiB (13%)\nAlignment                        : Aligned on interleaves\nInterleave, duration             : 24 ms (0.58 video frame)\nInterleave, preload duration     : 350 ms\n\n","torrent":{"xt":"urn:btih:ef430abe153d60f0cce7d94fd4eb5a84fc1d76ba","amp;dn":"Spies+Like+Us+1985+DVDrip+Englisk+Klam","amp;tr":["udp%3A%2F%2Ftracker.openbittorrent.com%3A80","udp%3A%2F%2Fopen.demonii.com%3A1337","udp%3A%2F%2Ftracker.coppersurfer.tk%3A6969","udp%3A%2F%2Fexodus.desync.com%3A6969"],"infoHash":"ef430abe153d60f0cce7d94fd4eb5a84fc1d76ba","infoHashBuffer":{"type":"Buffer","data":[239,67,10,190,21,61,96,240,204,231,217,79,212,235,90,132,252,29,118,186]},"announce":[],"urlList":[]}}